<mxfile host="app.diagrams.net" modified="2024-04-28T02:28:13.969Z" agent="Mozilla/5.0 (Windows NT 10.0; Win64; x64; rv:125.0) Gecko/20100101 Firefox/125.0" etag="5a3qRIYXzbWSfVvydCYN" version="24.2.0" type="github">
  <diagram id="C5RBs43oDa-KdzZeNtuy" name="Page-1">
    <mxGraphModel dx="1434" dy="754" grid="1" gridSize="10" guides="1" tooltips="1" connect="1" arrows="1" fold="1" page="1" pageScale="1" pageWidth="827" pageHeight="1169" math="0" shadow="0">
      <root>
        <mxCell id="WIyWlLk6GJQsqaUBKTNV-0" />
        <mxCell id="WIyWlLk6GJQsqaUBKTNV-1" parent="WIyWlLk6GJQsqaUBKTNV-0" />
        <mxCell id="hcA4icHbhECxLu7ysGGi-6" style="edgeStyle=orthogonalEdgeStyle;rounded=0;orthogonalLoop=1;jettySize=auto;html=1;exitX=0.5;exitY=1;exitDx=0;exitDy=0;entryX=0.5;entryY=0;entryDx=0;entryDy=0;" edge="1" parent="WIyWlLk6GJQsqaUBKTNV-1" source="hcA4icHbhECxLu7ysGGi-0" target="hcA4icHbhECxLu7ysGGi-2">
          <mxGeometry relative="1" as="geometry" />
        </mxCell>
        <mxCell id="hcA4icHbhECxLu7ysGGi-0" value="connection.cursor()" style="rounded=1;whiteSpace=wrap;html=1;fontSize=12;glass=0;strokeWidth=1;shadow=0;" vertex="1" parent="WIyWlLk6GJQsqaUBKTNV-1">
          <mxGeometry x="600" y="80" width="330" height="40" as="geometry" />
        </mxCell>
        <mxCell id="hcA4icHbhECxLu7ysGGi-8" style="edgeStyle=orthogonalEdgeStyle;rounded=0;orthogonalLoop=1;jettySize=auto;html=1;exitX=0.5;exitY=1;exitDx=0;exitDy=0;" edge="1" parent="WIyWlLk6GJQsqaUBKTNV-1" source="hcA4icHbhECxLu7ysGGi-1" target="hcA4icHbhECxLu7ysGGi-3">
          <mxGeometry relative="1" as="geometry" />
        </mxCell>
        <mxCell id="hcA4icHbhECxLu7ysGGi-1" value="close_if_health_check_failed()" style="rounded=1;whiteSpace=wrap;html=1;fontSize=12;glass=0;strokeWidth=1;shadow=0;" vertex="1" parent="WIyWlLk6GJQsqaUBKTNV-1">
          <mxGeometry x="600" y="290" width="330" height="40" as="geometry" />
        </mxCell>
        <mxCell id="hcA4icHbhECxLu7ysGGi-7" style="edgeStyle=orthogonalEdgeStyle;rounded=0;orthogonalLoop=1;jettySize=auto;html=1;exitX=0.5;exitY=1;exitDx=0;exitDy=0;entryX=0.5;entryY=0;entryDx=0;entryDy=0;" edge="1" parent="WIyWlLk6GJQsqaUBKTNV-1" source="hcA4icHbhECxLu7ysGGi-2" target="hcA4icHbhECxLu7ysGGi-1">
          <mxGeometry relative="1" as="geometry" />
        </mxCell>
        <mxCell id="hcA4icHbhECxLu7ysGGi-2" value=" _cursor()" style="rounded=1;whiteSpace=wrap;html=1;fontSize=12;glass=0;strokeWidth=1;shadow=0;" vertex="1" parent="WIyWlLk6GJQsqaUBKTNV-1">
          <mxGeometry x="600" y="190" width="330" height="40" as="geometry" />
        </mxCell>
        <mxCell id="hcA4icHbhECxLu7ysGGi-9" style="edgeStyle=orthogonalEdgeStyle;rounded=0;orthogonalLoop=1;jettySize=auto;html=1;exitX=0.5;exitY=1;exitDx=0;exitDy=0;entryX=0.5;entryY=0;entryDx=0;entryDy=0;" edge="1" parent="WIyWlLk6GJQsqaUBKTNV-1" source="hcA4icHbhECxLu7ysGGi-3" target="hcA4icHbhECxLu7ysGGi-4">
          <mxGeometry relative="1" as="geometry" />
        </mxCell>
        <mxCell id="hcA4icHbhECxLu7ysGGi-3" value="&lt;div&gt;ensure_connection()&lt;br&gt;&lt;/div&gt;" style="rounded=1;whiteSpace=wrap;html=1;fontSize=12;glass=0;strokeWidth=1;shadow=0;" vertex="1" parent="WIyWlLk6GJQsqaUBKTNV-1">
          <mxGeometry x="600" y="390" width="330" height="40" as="geometry" />
        </mxCell>
        <mxCell id="hcA4icHbhECxLu7ysGGi-17" style="edgeStyle=orthogonalEdgeStyle;rounded=0;orthogonalLoop=1;jettySize=auto;html=1;entryX=0;entryY=0.5;entryDx=0;entryDy=0;" edge="1" parent="WIyWlLk6GJQsqaUBKTNV-1" source="hcA4icHbhECxLu7ysGGi-4" target="hcA4icHbhECxLu7ysGGi-11">
          <mxGeometry relative="1" as="geometry" />
        </mxCell>
        <mxCell id="hcA4icHbhECxLu7ysGGi-4" value="&lt;div&gt;connect()&lt;br&gt;&lt;/div&gt;" style="rounded=1;whiteSpace=wrap;html=1;fontSize=12;glass=0;strokeWidth=1;shadow=0;" vertex="1" parent="WIyWlLk6GJQsqaUBKTNV-1">
          <mxGeometry x="600" y="490" width="330" height="40" as="geometry" />
        </mxCell>
        <mxCell id="hcA4icHbhECxLu7ysGGi-18" style="edgeStyle=orthogonalEdgeStyle;rounded=0;orthogonalLoop=1;jettySize=auto;html=1;exitX=0.5;exitY=1;exitDx=0;exitDy=0;entryX=0.5;entryY=0;entryDx=0;entryDy=0;" edge="1" parent="WIyWlLk6GJQsqaUBKTNV-1" source="hcA4icHbhECxLu7ysGGi-11">
          <mxGeometry relative="1" as="geometry">
            <mxPoint x="1225" y="550" as="targetPoint" />
          </mxGeometry>
        </mxCell>
        <mxCell id="hcA4icHbhECxLu7ysGGi-11" value="&lt;div&gt;check_setting()&lt;br&gt;&lt;/div&gt;" style="rounded=1;whiteSpace=wrap;html=1;fontSize=12;glass=0;strokeWidth=1;shadow=0;" vertex="1" parent="WIyWlLk6GJQsqaUBKTNV-1">
          <mxGeometry x="1060" y="490" width="330" height="40" as="geometry" />
        </mxCell>
        <mxCell id="hcA4icHbhECxLu7ysGGi-26" style="edgeStyle=orthogonalEdgeStyle;rounded=0;orthogonalLoop=1;jettySize=auto;html=1;exitX=0.5;exitY=1;exitDx=0;exitDy=0;entryX=0.5;entryY=0;entryDx=0;entryDy=0;" edge="1" parent="WIyWlLk6GJQsqaUBKTNV-1" source="hcA4icHbhECxLu7ysGGi-27" target="hcA4icHbhECxLu7ysGGi-29">
          <mxGeometry relative="1" as="geometry" />
        </mxCell>
        <mxCell id="hcA4icHbhECxLu7ysGGi-27" value="conn_params = get_connection_params()&lt;br&gt;不同的数据库，这个方法不同" style="rounded=1;whiteSpace=wrap;html=1;fontSize=12;glass=0;strokeWidth=1;shadow=0;" vertex="1" parent="WIyWlLk6GJQsqaUBKTNV-1">
          <mxGeometry x="1060" y="670" width="330" height="40" as="geometry" />
        </mxCell>
        <mxCell id="hcA4icHbhECxLu7ysGGi-28" style="edgeStyle=orthogonalEdgeStyle;rounded=0;orthogonalLoop=1;jettySize=auto;html=1;exitX=0.5;exitY=1;exitDx=0;exitDy=0;entryX=0.5;entryY=0;entryDx=0;entryDy=0;" edge="1" parent="WIyWlLk6GJQsqaUBKTNV-1" source="hcA4icHbhECxLu7ysGGi-29" target="hcA4icHbhECxLu7ysGGi-31">
          <mxGeometry relative="1" as="geometry" />
        </mxCell>
        <mxCell id="hcA4icHbhECxLu7ysGGi-29" value="self.connection = get_new_connection(conn_params)&lt;br&gt;不同的数据库，这个方法不同" style="rounded=1;whiteSpace=wrap;html=1;fontSize=12;glass=0;strokeWidth=1;shadow=0;" vertex="1" parent="WIyWlLk6GJQsqaUBKTNV-1">
          <mxGeometry x="1060" y="730" width="330" height="40" as="geometry" />
        </mxCell>
        <mxCell id="hcA4icHbhECxLu7ysGGi-30" style="edgeStyle=orthogonalEdgeStyle;rounded=0;orthogonalLoop=1;jettySize=auto;html=1;exitX=0.5;exitY=1;exitDx=0;exitDy=0;entryX=0.5;entryY=0;entryDx=0;entryDy=0;" edge="1" parent="WIyWlLk6GJQsqaUBKTNV-1" source="hcA4icHbhECxLu7ysGGi-31" target="hcA4icHbhECxLu7ysGGi-33">
          <mxGeometry relative="1" as="geometry" />
        </mxCell>
        <mxCell id="hcA4icHbhECxLu7ysGGi-31" value="set_autocommit()" style="rounded=1;whiteSpace=wrap;html=1;fontSize=12;glass=0;strokeWidth=1;shadow=0;" vertex="1" parent="WIyWlLk6GJQsqaUBKTNV-1">
          <mxGeometry x="1060" y="794.5" width="330" height="40" as="geometry" />
        </mxCell>
        <mxCell id="hcA4icHbhECxLu7ysGGi-45" style="edgeStyle=orthogonalEdgeStyle;rounded=0;orthogonalLoop=1;jettySize=auto;html=1;exitX=0.5;exitY=1;exitDx=0;exitDy=0;entryX=0.5;entryY=0;entryDx=0;entryDy=0;" edge="1" parent="WIyWlLk6GJQsqaUBKTNV-1" source="hcA4icHbhECxLu7ysGGi-33" target="hcA4icHbhECxLu7ysGGi-44">
          <mxGeometry relative="1" as="geometry" />
        </mxCell>
        <mxCell id="hcA4icHbhECxLu7ysGGi-33" value="&lt;div&gt;init_connection_state()&lt;br&gt;&lt;/div&gt;" style="rounded=1;whiteSpace=wrap;html=1;fontSize=12;glass=0;strokeWidth=1;shadow=0;" vertex="1" parent="WIyWlLk6GJQsqaUBKTNV-1">
          <mxGeometry x="1060" y="860" width="330" height="40" as="geometry" />
        </mxCell>
        <mxCell id="hcA4icHbhECxLu7ysGGi-36" style="edgeStyle=orthogonalEdgeStyle;rounded=0;orthogonalLoop=1;jettySize=auto;html=1;exitX=0.5;exitY=1;exitDx=0;exitDy=0;entryX=0.5;entryY=0;entryDx=0;entryDy=0;" edge="1" parent="WIyWlLk6GJQsqaUBKTNV-1" source="hcA4icHbhECxLu7ysGGi-34" target="hcA4icHbhECxLu7ysGGi-35">
          <mxGeometry relative="1" as="geometry" />
        </mxCell>
        <mxCell id="hcA4icHbhECxLu7ysGGi-34" value="设置 atomic block" style="rounded=1;whiteSpace=wrap;html=1;fontSize=12;glass=0;strokeWidth=1;shadow=0;" vertex="1" parent="WIyWlLk6GJQsqaUBKTNV-1">
          <mxGeometry x="1060" y="550" width="330" height="40" as="geometry" />
        </mxCell>
        <mxCell id="hcA4icHbhECxLu7ysGGi-37" style="edgeStyle=orthogonalEdgeStyle;rounded=0;orthogonalLoop=1;jettySize=auto;html=1;exitX=0.5;exitY=1;exitDx=0;exitDy=0;entryX=0.5;entryY=0;entryDx=0;entryDy=0;" edge="1" parent="WIyWlLk6GJQsqaUBKTNV-1" source="hcA4icHbhECxLu7ysGGi-35" target="hcA4icHbhECxLu7ysGGi-27">
          <mxGeometry relative="1" as="geometry" />
        </mxCell>
        <mxCell id="hcA4icHbhECxLu7ysGGi-35" value="重新设置参数定义" style="rounded=1;whiteSpace=wrap;html=1;fontSize=12;glass=0;strokeWidth=1;shadow=0;" vertex="1" parent="WIyWlLk6GJQsqaUBKTNV-1">
          <mxGeometry x="1060" y="610" width="330" height="40" as="geometry" />
        </mxCell>
        <mxCell id="hcA4icHbhECxLu7ysGGi-42" value="连接结束" style="rounded=1;whiteSpace=wrap;html=1;fontSize=12;glass=0;strokeWidth=1;shadow=0;" vertex="1" parent="WIyWlLk6GJQsqaUBKTNV-1">
          <mxGeometry x="600" y="930" width="330" height="40" as="geometry" />
        </mxCell>
        <mxCell id="hcA4icHbhECxLu7ysGGi-43" style="edgeStyle=orthogonalEdgeStyle;rounded=0;orthogonalLoop=1;jettySize=auto;html=1;exitX=0;exitY=0.5;exitDx=0;exitDy=0;entryX=1;entryY=0.5;entryDx=0;entryDy=0;" edge="1" parent="WIyWlLk6GJQsqaUBKTNV-1" source="hcA4icHbhECxLu7ysGGi-44" target="hcA4icHbhECxLu7ysGGi-42">
          <mxGeometry relative="1" as="geometry" />
        </mxCell>
        <mxCell id="hcA4icHbhECxLu7ysGGi-44" value="&lt;div&gt;connection_created.send()&lt;br&gt;&lt;/div&gt;" style="rounded=1;whiteSpace=wrap;html=1;fontSize=12;glass=0;strokeWidth=1;shadow=0;" vertex="1" parent="WIyWlLk6GJQsqaUBKTNV-1">
          <mxGeometry x="1060" y="930" width="330" height="40" as="geometry" />
        </mxCell>
      </root>
    </mxGraphModel>
  </diagram>
</mxfile>
